<svg width="48" height="49" viewBox="0 0 48 49" fill="none" xmlns="http://www.w3.org/2000/svg">
<path d="M24.0432 0.679932C10.8147 0.679932 0.0876694 11.5878 0.0876694 25.0445C0.0876694 35.8096 6.95167 44.9426 16.4699 48.1643C17.6672 48.3899 18.1067 47.6358 18.1067 46.9922C18.1067 46.4112 18.0845 44.4919 18.0742 42.456C11.4097 43.9299 10.0034 39.5812 10.0034 39.5812C8.91372 36.765 7.3436 36.0161 7.3436 36.0161C5.17012 34.5039 7.50744 34.535 7.50744 34.535C9.91299 34.7065 11.1796 37.0458 11.1796 37.0458C13.3162 40.7707 16.7837 39.6938 18.1507 39.0712C18.3658 37.4969 18.9866 36.4212 19.6717 35.8132C14.3508 35.1971 8.75742 33.1079 8.75742 23.7719C8.75742 21.1118 9.69322 18.9383 11.2257 17.232C10.9769 16.6179 10.157 14.1402 11.4577 10.7841C11.4577 10.7841 13.4694 10.1293 18.0472 13.2816C19.9581 12.7418 22.0074 12.471 24.0432 12.4618C26.0791 12.471 28.13 12.7418 30.0444 13.2816C34.6167 10.1293 36.6256 10.7841 36.6256 10.7841C37.9295 14.1402 37.1092 16.6179 36.8604 17.232C38.3964 18.9383 39.3259 21.1118 39.3259 23.7719C39.3259 33.1301 33.7218 35.1906 28.3874 35.7938C29.2467 36.5499 30.0123 38.0327 30.0123 40.3059C30.0123 43.5655 29.9845 46.1893 29.9845 46.9922C29.9845 47.6406 30.4157 48.4003 31.63 48.1611C41.1431 44.9357 47.9984 35.8059 47.9984 25.0445C47.9984 11.5878 37.273 0.679932 24.0432 0.679932Z" fill="white"/>
<path d="M9.16086 35.6623C9.1081 35.7838 8.92086 35.8197 8.75028 35.7366C8.57653 35.6571 8.47894 35.4921 8.53527 35.3706C8.58684 35.246 8.77448 35.2117 8.94783 35.2944C9.12198 35.3743 9.22115 35.5409 9.16086 35.6623Z" fill="white"/>
<path d="M10.1312 36.763C10.0169 36.8707 9.79358 36.8207 9.64205 36.6504C9.48535 36.4806 9.456 36.2534 9.57183 36.1441C9.68965 36.0363 9.90624 36.0868 10.0633 36.2566C10.22 36.4285 10.2506 36.6541 10.1312 36.763Z" fill="white"/>
<path d="M11.0757 38.1662C10.9289 38.2699 10.6889 38.1726 10.5406 37.956C10.3938 37.7393 10.3938 37.4795 10.5437 37.3754C10.6925 37.2713 10.9289 37.3649 11.0793 37.5799C11.2257 37.7998 11.2257 38.0601 11.0757 38.1662Z" fill="white"/>
<path d="M12.3697 39.5219C12.2384 39.6692 11.9587 39.6297 11.754 39.4287C11.5446 39.2322 11.4863 38.9534 11.618 38.8062C11.7509 38.6585 12.0321 38.7001 12.2384 38.8994C12.4463 39.0955 12.5097 39.3763 12.3697 39.5219Z" fill="white"/>
<path d="M14.1548 40.309C14.0969 40.4999 13.8276 40.5866 13.5562 40.5055C13.2853 40.422 13.108 40.1985 13.1627 40.0056C13.219 39.8136 13.4896 39.7232 13.7629 39.8099C14.0335 39.893 14.2112 40.1149 14.1548 40.309Z" fill="white"/>
<path d="M16.1153 40.4552C16.122 40.6561 15.892 40.8228 15.6071 40.826C15.3207 40.8329 15.0891 40.6703 15.0859 40.4726C15.0859 40.2696 15.3108 40.1046 15.5972 40.0998C15.882 40.0941 16.1153 40.2555 16.1153 40.4552Z" fill="white"/>
<path d="M17.9397 40.1392C17.9738 40.3353 17.7759 40.5366 17.493 40.5899C17.2149 40.6419 16.9575 40.5209 16.9222 40.3264C16.8877 40.1255 17.0892 39.9241 17.3669 39.8721C17.6501 39.8221 17.9036 39.9399 17.9397 40.1392Z" fill="white"/>
</svg>
