<svg width="48" height="49" viewBox="0 0 48 49" fill="none" xmlns="http://www.w3.org/2000/svg">
<path fill-rule="evenodd" clip-rule="evenodd" d="M24 0.5C10.7452 0.5 0 11.2452 0 24.5C0 37.7548 10.7452 48.5 24 48.5C37.2548 48.5 48 37.7548 48 24.5C48 11.2452 37.2548 0.5 24 0.5ZM11.5216 20.3778H16.9605V36.7196H11.5216V20.3778ZM17.3188 15.3227C17.2835 13.7204 16.1377 12.5 14.277 12.5C12.4164 12.5 11.2 13.7204 11.2 15.3227C11.2 16.8918 12.3805 18.1473 14.2064 18.1473H14.2412C16.1377 18.1473 17.3188 16.8918 17.3188 15.3227ZM30.3131 19.9941C33.8922 19.9941 36.5754 22.3303 36.5754 27.3497L36.5752 36.7196H31.1365V27.9767C31.1365 25.7807 30.3494 24.2822 28.3805 24.2822C26.8779 24.2822 25.9829 25.2924 25.5898 26.2682C25.446 26.6178 25.4107 27.105 25.4107 27.5934V36.72H19.9711C19.9711 36.72 20.0428 21.9117 19.9711 20.3783H25.4107V22.6929C26.1325 21.5802 27.4254 19.9941 30.3131 19.9941Z" fill="white"/>
</svg>
