<svg width="48" height="49" viewBox="0 0 48 49" fill="none" xmlns="http://www.w3.org/2000/svg">
<path fill-rule="evenodd" clip-rule="evenodd" d="M24 48.5C37.2548 48.5 48 37.7548 48 24.5C48 11.2452 37.2548 0.5 24 0.5C10.7452 0.5 0 11.2452 0 24.5C0 37.7548 10.7452 48.5 24 48.5ZM9.6 24.4995C9.6 16.5593 16.0603 10.1 23.9995 10.1C31.9397 10.1 38.4 16.5593 38.4 24.4995C38.4 32.4407 31.9397 38.899 23.9995 38.899C16.0603 38.899 9.6 32.4397 9.6 24.4995Z" fill="white"/>
<path fill-rule="evenodd" clip-rule="evenodd" d="M19.2955 12.2263C17.7282 12.8301 16.3073 13.7225 15.0947 14.8415L15.0931 14.8458L15.0931 14.8458C15.0713 14.9022 15.0507 14.9557 15.0368 15.0072C14.987 15.2064 15.3854 15.057 15.3854 15.057L15.8306 15.2552L16.3764 15.057C16.3764 15.057 16.5258 14.7592 16.8714 14.5122C17.1205 14.3338 17.166 14.2571 17.2264 14.1554C17.2503 14.1152 17.2766 14.0711 17.3186 14.0152C17.3921 13.9176 17.3928 13.9169 17.4528 13.8569C17.514 13.7956 17.637 13.6727 17.962 13.322C18.6074 12.6268 18.954 12.6278 18.954 12.6278C18.954 12.6278 19.1411 12.4245 19.2955 12.2263ZM21.0367 15.9982L20.8395 15.7014L21.0367 15.2552L21.5144 15.4463V14.561L21.9707 14.314L22.3499 14.8588L22.9333 15.5042L22.546 15.801L21.5134 15.9992V15.4738L21.0367 15.9982ZM27.9777 20.8069C27.9777 20.8069 27.5986 20.567 27.4827 20.6585C26.9867 21.0559 25.8453 20.8069 25.6003 20.7062C25.3513 20.6066 25.2029 20.4592 25.2029 20.3098C25.2029 20.1604 24.9793 19.4418 24.9793 19.4418C24.9793 19.4418 24.4955 19.5282 24.3471 19.5282C24.1987 19.5282 23.8084 19.3727 23.8084 19.3727C23.8084 19.3727 23.3144 19.4195 23.1162 19.5191C22.9201 19.6187 22.5237 19.7661 22.3753 19.8159C22.2269 19.8657 21.8315 19.9144 21.8315 19.9144C21.3853 19.7162 21.0387 20.2112 20.9381 20.4094C20.8992 20.4888 20.8443 20.5521 20.7922 20.6122C20.7134 20.7029 20.6413 20.7862 20.6413 20.9054C20.6413 21.1047 20.2937 21.4015 20.1453 21.5001C20.1165 21.5195 20.0727 21.5464 20.0195 21.579C19.8002 21.7135 19.4231 21.9448 19.3037 22.1445C19.1543 22.3925 19.0059 22.6903 18.9561 22.9383C18.9073 23.1863 18.9073 23.3845 18.9073 23.7311C18.9073 23.8549 18.9009 23.9599 18.895 24.0574L18.895 24.0574C18.8844 24.2327 18.8753 24.3837 18.9073 24.5757C18.955 24.8715 19.4521 25.6155 19.6493 25.8645C19.8485 26.1125 20.0965 26.4093 20.3455 26.5577C20.5915 26.7071 20.9401 27.0039 20.9401 27.0039C20.9401 27.0039 21.1373 27.3007 21.5327 27.1523C21.6986 27.0901 21.864 27.0538 22.0257 27.0183C22.2523 26.9685 22.4717 26.9204 22.6751 26.8047C23.0227 26.6075 23.5675 26.3585 23.5675 26.6563C23.5675 26.9541 23.7647 27.1533 24.0625 27.0537C24.1098 27.0379 24.1621 27.0183 24.2164 26.9981L24.2164 26.998C24.5039 26.8906 24.8474 26.7622 24.8055 27.0537C24.7745 27.2746 24.8231 27.5349 24.8627 27.7467L24.8627 27.7468L24.8627 27.7468L24.8627 27.7468C24.8854 27.8682 24.9051 27.9738 24.9051 28.0468C24.9051 28.0865 24.9031 28.1263 24.901 28.1658C24.8931 28.3215 24.8854 28.4722 25.0037 28.5905C25.05 28.6369 25.1207 28.693 25.196 28.7528C25.362 28.8846 25.5505 29.0343 25.5505 29.1363C25.5505 29.2837 25.5983 29.7797 25.6979 29.979C25.7975 30.1782 25.8961 30.475 25.7965 30.6732C25.6979 30.8714 25.4977 31.4172 25.4977 31.4172C25.4977 31.4172 25.394 31.8624 25.4438 32.0108C25.4936 32.1612 25.5851 32.3584 25.8331 32.6064C25.9761 32.7488 26.015 32.9085 26.051 33.0562C26.0774 33.1646 26.1022 33.2665 26.1655 33.3504C26.3149 33.5486 26.4653 34.1432 26.4653 34.1432L26.4877 34.6392V35.0844C26.4877 35.0844 27.5813 34.936 27.7795 34.8862C27.9777 34.8364 28.7532 34.4888 28.9504 34.2916C29.0392 34.2023 29.0805 34.123 29.1211 34.045C29.1712 33.9489 29.2202 33.8546 29.356 33.7458C29.605 33.5486 30.0563 33.2 30.0563 33.2L30.0075 32.457L30.6051 31.6652L31.0524 31.218C31.0524 31.218 31.4478 30.6732 31.399 30.475C31.3502 30.2768 31.2506 29.2847 31.2506 29.2847C31.2506 29.2847 31.4498 28.8385 31.5982 28.6403C31.6514 28.5684 31.6856 28.4902 31.7216 28.4079L31.7216 28.4079C31.7854 28.2622 31.8547 28.104 32.0444 27.9461C32.296 27.7375 32.4757 27.4926 32.6156 27.3021L32.6156 27.3021C32.6413 27.2671 32.6656 27.2339 32.6888 27.2031L32.7201 27.1614L32.7201 27.1613C32.8757 26.9536 33.1415 26.5987 33.2336 26.4601C33.3322 26.3107 33.4328 25.8655 33.4328 25.8655L32.5384 26.0139C32.3653 25.7247 32.0063 25.2337 31.7077 24.8252L31.7076 24.8251L31.7076 24.825L31.7073 24.8247C31.4939 24.5328 31.3114 24.2831 31.2496 24.1793C31.1012 23.9313 30.9528 23.4353 30.903 23.2371C30.8716 23.1129 30.7615 22.8498 30.6717 22.6351L30.6716 22.6349L30.6716 22.6349C30.6189 22.5089 30.5731 22.3996 30.5543 22.3447C30.5187 22.2364 30.325 21.9695 30.1843 21.7755C30.1321 21.7036 30.0873 21.6418 30.0604 21.6017C30.0022 21.5145 29.86 21.4443 29.712 21.3712C29.6064 21.3191 29.4979 21.2655 29.4149 21.2033C29.2167 21.0549 27.9777 20.8069 27.9777 20.8069ZM11.1836 27.4227C11.2476 27.4389 11.3391 27.4857 11.4682 27.6005C11.6552 27.7632 11.766 27.8465 12.014 27.9471C12.1424 27.9994 12.2309 28.0641 12.3282 28.1351L12.3282 28.1351C12.4181 28.2008 12.5154 28.2718 12.6584 28.3435C12.7084 28.3686 12.7472 28.3867 12.7791 28.4016L12.7791 28.4016C12.8227 28.4219 12.8533 28.4362 12.8817 28.454C12.9481 28.4957 13.0023 28.5568 13.1835 28.7612L13.253 28.8396C13.582 29.2081 13.6045 29.2716 13.6584 29.4238C13.6697 29.4554 13.6822 29.4909 13.6992 29.5338C13.7978 29.7828 13.9472 30.0288 14.0468 30.1792C14.1129 30.2777 14.2658 30.3542 14.4046 30.4237C14.4749 30.4589 14.5417 30.4923 14.5916 30.5258C14.74 30.6254 14.988 30.724 15.1364 30.724C15.2075 30.724 15.3458 30.825 15.498 30.9362C15.6656 31.0587 15.85 31.1934 15.98 31.219C16.228 31.2698 16.228 31.7658 16.228 31.7658L15.98 32.459L15.7808 33.202L15.98 33.7966C15.98 33.7966 15.6812 34.0456 15.485 34.0456C15.4082 34.0456 15.3527 34.066 15.2994 34.0857C15.2256 34.1128 15.156 34.1384 15.0398 34.1066C13.1493 32.3411 11.7782 30.0318 11.1836 27.4227ZM33.1838 30.3764C33.1838 30.5248 33.134 30.9222 33.0842 31.1204C33.0634 31.1998 33.0353 31.3033 33.0059 31.4114L33.0058 31.4117L33.0057 31.4122C32.9618 31.5735 32.9152 31.745 32.886 31.8624C32.8362 32.0616 32.5882 32.458 32.4408 32.5576C32.3811 32.5977 32.3051 32.6698 32.226 32.7449L32.226 32.7449C32.1085 32.8565 31.9841 32.9746 31.896 33.0038C31.7476 33.0536 31.647 32.6562 31.6968 32.458C31.7476 32.2598 31.9946 31.715 31.9946 31.715C31.9946 31.715 32.0444 31.4182 32.0932 31.219C32.144 31.0218 32.7386 30.7738 32.7386 30.7738L33.136 30.0299C33.1359 30.0309 33.1374 30.0381 33.14 30.0502L33.14 30.0502L33.14 30.0502C33.1515 30.1048 33.1838 30.2577 33.1838 30.3764ZM13.502 16.7422C13.502 16.8035 13.4761 16.8504 13.4484 16.9007C13.3865 17.0131 13.3153 17.1422 13.502 17.4862C13.8476 18.1306 13.5508 18.4285 13.5508 18.4285C13.5508 18.4285 12.7072 19.0231 12.5588 19.1227C12.4104 19.2223 12.014 19.7671 12.261 19.6177C12.509 19.4693 12.8058 19.3209 12.5588 19.7173C12.4857 19.8344 12.3954 19.9729 12.3018 20.1164L12.3018 20.1164L12.3018 20.1164C12.0779 20.4597 11.8355 20.8315 11.766 21.0071C11.7301 21.0976 11.6417 21.2337 11.5438 21.3846C11.3723 21.6487 11.1714 21.958 11.1714 22.1475C11.1714 22.2777 11.1335 22.4647 11.095 22.6548C11.0455 22.8996 10.9949 23.1493 11.023 23.2889C11.0565 23.4617 10.9467 23.9709 10.8604 24.1803C10.9274 21.3933 11.8656 18.8249 13.4146 16.7239C13.4654 16.729 13.502 16.7422 13.502 16.7422ZM37.1293 25.0652C37.1421 24.8775 37.1549 24.6902 37.1549 24.4995C37.1549 19.8047 34.6749 15.6872 30.966 13.3596C30.9286 13.3804 30.8862 13.4063 30.8409 13.4339C30.6365 13.5586 30.3746 13.7184 30.2606 13.6036C30.1122 13.4552 29.7636 13.2407 29.7636 13.2407C30.0624 13.0415 29.169 12.7111 29.169 12.7111L28.1292 12.7945H27.3862C27.3209 12.7945 27.2273 12.7741 27.1218 12.7512C26.986 12.7216 26.8306 12.6878 26.691 12.6878C26.5187 12.6878 26.1744 12.799 25.9151 12.8827C25.8042 12.9185 25.7088 12.9493 25.6491 12.9642C25.5713 12.9836 25.4539 13.0352 25.3281 13.0905C25.1369 13.1746 24.9265 13.2671 24.8075 13.2671C24.6104 13.2671 24.3115 13.6412 24.3115 13.6412C24.3115 13.6412 23.9649 14.2754 24.2638 14.1758C24.5595 14.0762 24.957 14.0711 25.0047 14.2205C25.0292 14.2915 25.0645 14.385 25.1002 14.4797C25.1387 14.5816 25.1776 14.6848 25.2039 14.7623C25.2527 14.9107 25.9469 14.9584 25.9469 14.9584C25.9469 14.9584 26.0465 14.7104 26.1949 14.5122C26.3433 14.314 26.4917 14.066 26.4917 14.066C26.4917 14.066 26.7397 14.562 26.7895 14.7104C26.8383 14.8598 26.6899 15.305 26.6899 15.305C26.6899 15.305 26.1451 15.6516 25.9957 15.6516C25.8463 15.6516 25.0027 14.9076 25.0027 14.9076C24.7059 15.0072 24.4579 15.1566 24.4579 15.1566C24.1113 15.5042 23.7637 15.801 23.7637 15.801C23.7637 15.801 23.4638 15.9006 23.2667 16.049C23.1777 16.1156 23.0426 16.1587 22.9099 16.2009C22.7467 16.2529 22.5872 16.3037 22.5216 16.3956C22.2746 16.7422 22.6172 16.9902 22.6172 16.9902L22.3123 17.3866L22.0998 17.536L21.3751 17.6855L20.9411 17.7586C20.9899 17.907 20.8933 18.3787 20.8933 18.3787V19.2192C20.8933 19.2192 21.6089 19.4174 21.7583 19.4174C21.7801 19.4174 21.8065 19.4185 21.8365 19.4198C22.011 19.427 22.3039 19.439 22.4739 19.269C22.67 19.0708 22.9932 18.6246 23.0918 18.4762C23.1904 18.3278 23.3246 18.1794 23.6234 18.0798C23.7963 18.0222 23.8824 17.9475 23.9539 17.8855C24.0047 17.8414 24.0482 17.8037 24.1103 17.783C24.2597 17.7332 24.8431 17.6336 24.8431 17.6336C24.8431 17.6336 25.1877 17.8826 25.3351 17.9812C25.3521 17.9929 25.3554 18.0108 25.3596 18.0334C25.3725 18.1039 25.3938 18.2201 25.8646 18.3339V18.7263L26.5243 18.6765L26.2254 18.2801L26.1746 18.2668L25.6003 17.6855L25.5577 17.2393C25.5577 17.2393 26.1685 17.5859 26.3667 17.6855C26.5649 17.7841 26.9877 18.0808 26.9877 18.0808L27.2815 18.774L27.6779 19.2578C27.5447 19.0922 27.2164 18.6246 27.7287 18.6246C27.7287 18.6246 28.2003 18.6744 28.3487 18.6246C28.4981 18.5758 28.6323 18.527 28.8295 18.4274C28.9262 18.3788 28.9099 18.2714 28.8907 18.1453C28.8706 18.013 28.8474 17.8602 28.9484 17.7332C29.1476 17.4852 29.4058 17.3856 29.5542 17.3368C29.7036 17.287 30.2026 17.039 30.2026 17.039L30.7515 17.1386C30.5045 17.3368 30.2087 17.6336 30.4059 17.5848C30.6041 17.535 31.0524 17.783 31.2496 17.9314C31.4478 18.0798 31.2994 18.4274 31.2994 18.4274C31.2994 18.4274 30.7546 18.3776 30.408 18.3278C30.0604 18.279 29.5145 18.3776 29.5145 18.3776L29.0694 18.6246C29.0694 18.6246 28.7715 18.7242 28.8213 18.9712C28.8701 19.2192 29.0694 19.518 29.2676 19.765C29.3119 19.8211 29.3539 19.8796 29.394 19.9354C29.5319 20.1276 29.6473 20.2884 29.7615 20.2112C29.912 20.1116 30.408 19.8148 30.408 19.8148C30.408 19.8148 30.3073 20.1614 30.3582 20.4094C30.408 20.6564 30.408 21.004 30.408 21.004C30.408 21.004 29.912 21.004 30.0604 21.1047C30.1719 21.1778 30.3202 21.411 30.4231 21.5729C30.4562 21.625 30.4845 21.6696 30.5055 21.6993C31.0015 22.3925 32.0424 23.9293 32.142 24.1275C32.1834 24.212 32.1992 24.315 32.2147 24.4166C32.2358 24.5543 32.2565 24.6894 32.3402 24.7719C32.637 25.0697 33.2316 24.7719 33.3799 24.6733C33.4265 24.6429 33.5067 24.5976 33.5995 24.5453C33.8043 24.4297 34.0706 24.2794 34.1728 24.1773C34.2324 24.1184 34.2606 24.0906 34.2914 24.0661C34.3383 24.0289 34.3915 23.9995 34.5712 23.8805C34.868 23.6823 35.0662 23.5329 34.9178 23.3845C34.7694 23.2361 34.4726 22.6903 34.4726 22.6903C34.0244 22.7899 33.5792 22.5419 33.5792 22.3935C33.5792 22.2451 33.1828 21.6505 33.1828 21.6505C33.1828 21.6505 33.2316 21.5519 33.5792 21.7491C33.711 21.824 33.8353 21.9275 33.955 22.0271C34.1519 22.191 34.3366 22.3447 34.5224 22.3447C34.7972 22.3447 34.9439 22.4292 35.2402 22.5999C35.2638 22.6136 35.2885 22.6278 35.3142 22.6425C35.5059 22.7513 35.6374 22.8755 35.7498 22.9818C35.8412 23.0681 35.92 23.1426 36.0084 23.1873C36.2066 23.2869 36.5044 23.6833 36.5044 23.6833C36.5044 23.6833 36.8022 24.3775 36.851 24.5767C36.8729 24.6623 36.9403 24.822 37.0102 24.9876C37.0473 25.0757 37.0852 25.1654 37.1173 25.2465C37.121 25.1859 37.1251 25.1255 37.1293 25.0652Z" fill="white"/>
</svg>
